<?xml version="1.0" encoding="utf-8"?>
<!-- Generator: Adobe Illustrator 24.1.0, SVG Export Plug-In . SVG Version: 6.00 Build 0)  -->
<svg version="1.1" id="Capa_1" xmlns="http://www.w3.org/2000/svg" xmlns:xlink="http://www.w3.org/1999/xlink" x="0px" y="0px"
	 viewBox="0 0 44 45" style="enable-background:new 0 0 44 45;" xml:space="preserve">
<style type="text/css">
	.st0{fill:#FFFFFF;}
</style>
<path class="st0" d="M17.8,22.34c0,1.8,0,3.49,0,5.26c1.48,0,2.93,0,4.45,0c0,5.03,0,9.97,0,14.91c-7.72,0.5-17.96-5.13-20-16.44
	C0.23,14.91,7.9,4.27,19,2.67c11.2-1.62,21.6,6.24,22.92,17.27c1.41,11.79-7,20.11-14.47,21.84c0-4.69,0-9.36,0-14.12
	c1.49,0,2.98,0,4.53,0c0.28-1.78,0.55-3.49,0.83-5.27c-1.79,0-3.53,0-5.41,0c0-0.55,0.01-1.05,0-1.54c-0.01-0.73-0.04-1.47-0.04-2.2
	c0-1.25,0.6-1.88,1.84-1.89c1.15-0.01,2.29,0,3.5,0c0-1.65,0-3.27,0-4.95c-1.97,0.08-3.95-0.25-5.88,0.39
	c-2.7,0.89-4.4,3.13-4.49,5.97c-0.04,1.15-0.04,2.3-0.01,3.44c0.01,0.54-0.1,0.78-0.71,0.76C20.36,22.31,19.13,22.34,17.8,22.34z"/>
</svg>
