<?xml version="1.0" encoding="utf-8"?>
<!-- Generator: Adobe Illustrator 24.1.0, SVG Export Plug-In . SVG Version: 6.00 Build 0)  -->
<svg version="1.1" id="Capa_1" xmlns="http://www.w3.org/2000/svg" xmlns:xlink="http://www.w3.org/1999/xlink" x="0px" y="0px"
	 viewBox="0 0 44 45" style="enable-background:new 0 0 44 45;" xml:space="preserve">
<style type="text/css">
	.st0{fill:#FFFFFF;}
</style>
<g>
	<path class="st0" d="M22.34,2.77c8.86-0.07,16.95,6.25,19.13,15.21c1.85,7.62-1.23,15.86-7.6,20.41c-3.75,2.67-7.91,3.94-12.5,3.85
		c-9.01-0.18-17.07-6.8-18.92-15.54C0.53,17.67,4.95,8.71,13.28,4.73C16.03,3.41,18.92,2.76,22.34,2.77z M8.82,22.51
		c-0.01,0-0.01,0-0.02,0c0,1.52,0,3.04,0,4.56c0,0.53-0.01,1.07,0.06,1.6c0.53,3.95,3.8,6.86,7.8,6.9c3.59,0.04,7.18,0.04,10.77,0
		c4.43-0.04,7.86-3.55,7.87-7.99c0.01-3.4,0.01-6.8,0-10.2c0-0.48-0.03-0.98-0.12-1.45c-0.73-3.83-3.94-6.5-7.84-6.51
		c-3.52-0.01-7.04-0.01-10.55,0.01c-0.62,0-1.26,0.08-1.87,0.21c-3.39,0.75-5.93,3.72-6.08,7.2C8.76,18.73,8.82,20.62,8.82,22.51z"
		/>
	<path class="st0" d="M22.07,11.91c1.9,0,3.8-0.06,5.7,0.02c2.77,0.12,5.02,2.51,5.03,5.27c0.02,3.53,0.02,7.06,0,10.59
		c-0.01,2.87-2.38,5.29-5.26,5.31c-3.66,0.03-7.32,0.03-10.98,0c-2.89-0.03-5.23-2.41-5.26-5.35c-0.03-3.51-0.04-7.01,0-10.52
		c0.03-3.03,2.41-5.31,5.49-5.34c1.76-0.02,3.52,0,5.28,0C22.07,11.89,22.07,11.9,22.07,11.91z M28.69,22.5
		c0-3.56-2.92-6.44-6.52-6.44c-3.59,0-6.53,2.9-6.53,6.44c0,3.54,2.95,6.45,6.53,6.44C25.76,28.94,28.69,26.05,28.69,22.5z
		 M27.52,15.64c0,0.85,0.7,1.52,1.56,1.52c0.86-0.01,1.55-0.69,1.54-1.54c-0.01-0.85-0.7-1.53-1.56-1.52
		C28.2,14.1,27.52,14.78,27.52,15.64z"/>
	<path class="st0" d="M26.34,22.49c0,2.28-1.86,4.12-4.17,4.12c-2.31,0-4.19-1.85-4.19-4.12c0-2.27,1.88-4.12,4.18-4.13
		C24.47,18.37,26.34,20.21,26.34,22.49z"/>
</g>
</svg>
