<?xml version="1.0" encoding="utf-8"?>
<!-- Generator: Adobe Illustrator 24.1.0, SVG Export Plug-In . SVG Version: 6.00 Build 0)  -->
<svg version="1.1" id="Capa_1" xmlns="http://www.w3.org/2000/svg" xmlns:xlink="http://www.w3.org/1999/xlink" x="0px" y="0px"
	 viewBox="0 0 81 81" style="enable-background:new 0 0 81 81;" xml:space="preserve">
<style type="text/css">
	.st0{fill:#FFFFFF;}
</style>
<g>
	<path class="st0" d="M2.62,40.49C2.64,19.54,19.63,2.57,40.56,2.62c20.93,0.05,37.88,17.04,37.82,37.92
		c-0.05,20.95-17,37.86-37.91,37.84C19.55,78.36,2.6,61.39,2.62,40.49z M65.88,61.36c6.35-7.19,10.17-19.91,5.43-32.54
		c-5-13.35-18.22-21.94-32.66-21.21c-14.13,0.71-26.28,10.6-30,24.5c-1.82,6.8-1.42,13.52,1.05,20.1c1.25,3.34,3.03,6.39,5.32,9.15
		c0.08-0.09,0.1-0.1,0.1-0.12c0.05-0.11,0.09-0.22,0.13-0.34c1.9-5.83,5.71-10.05,10.93-13.12c0.36-0.21,0.57-0.21,0.87,0.11
		c0.55,0.6,1.13,1.17,1.75,1.69c0.66,0.56,1.38,1.05,2.11,1.6c-0.19,0.1-0.35,0.19-0.51,0.26c-1.83,0.86-3.53,1.93-5.04,3.27
		c-3.16,2.82-5.2,6.25-5.74,10.5c-0.07,0.54,0.09,0.85,0.5,1.17c6.81,5.24,14.5,7.58,23.07,6.92c6.62-0.51,12.53-2.91,17.75-6.99
		c0.34-0.27,0.47-0.52,0.42-0.97c-0.2-1.71-0.65-3.35-1.39-4.9c-2-4.15-5.25-7-9.34-8.98c-0.17-0.08-0.33-0.17-0.38-0.19
		c1.31-1.19,2.59-2.36,3.89-3.51c0.11-0.1,0.41-0.09,0.56-0.01c3.34,1.89,6.14,4.37,8.31,7.55C64.28,57.16,65.21,59.16,65.88,61.36z
		"/>
	<path class="st0" d="M24.27,35.96c0.39-7.24,3.22-12.55,9.39-15.81c1.99-1.05,4.15-1.51,6.41-1.59c8.09-0.3,14.64,5.68,16.27,13.16
		c0.46,2.12,0.59,4.27,0.24,6.41c-0.94,5.77-3.77,10.28-9.08,12.98c-6.21,3.15-13.61,1.77-18.38-3.3c-2.07-2.2-3.51-4.77-4.2-7.7
		C24.57,38.61,24.44,37.07,24.27,35.96z M52.1,37.27c0.07-4.19-0.68-6.76-2.25-9.08c-4.15-6.11-12.47-6.78-17.46-1.42
		c-4.69,5.04-4.53,13.23,0.35,18.1c3.74,3.73,9.41,4.37,13.8,1.45C50.23,43.86,51.92,40.25,52.1,37.27z"/>
</g>
</svg>
