<?xml version="1.0" encoding="utf-8"?>
<!-- Generator: Adobe Illustrator 24.1.0, SVG Export Plug-In . SVG Version: 6.00 Build 0)  -->
<svg version="1.1" id="Capa_1" xmlns="http://www.w3.org/2000/svg" xmlns:xlink="http://www.w3.org/1999/xlink" x="0px" y="0px"
	 viewBox="0 0 44 45" style="enable-background:new 0 0 44 45;" xml:space="preserve">
<style type="text/css">
	.st0{fill:#FFFFFF;}
</style>
<g>
	<path class="st0" d="M21.14,2.5c0.81,0,1.62,0,2.42,0c0.49,0.06,0.98,0.11,1.47,0.18c5.25,0.78,9.56,3.21,12.84,7.38
		c3.2,4.07,4.53,8.74,4.04,13.89c-0.33,3.51-1.56,6.71-3.68,9.53c-3.74,4.96-8.75,7.64-14.95,8c-3.47,0.2-6.78-0.54-9.89-2.12
		c-0.24-0.12-0.44-0.14-0.7-0.06c-3.26,1.04-6.52,2.07-9.77,3.12c-0.38,0.12-0.68,0.1-0.93-0.22c0-0.13,0-0.26,0-0.39
		c0.05-0.12,0.11-0.23,0.15-0.35c1.04-3.05,2.07-6.11,3.11-9.15c0.11-0.31,0.09-0.55-0.07-0.84c-1.23-2.15-1.99-4.46-2.31-6.91
		c-0.45-3.41-0.08-6.74,1.3-9.9C7,8.15,11.94,4.21,18.91,2.82C19.65,2.67,20.4,2.6,21.14,2.5z M8.15,36.5
		c1.52-0.48,2.96-0.89,4.36-1.41c0.76-0.28,1.34-0.19,2.03,0.23c2.11,1.3,4.44,1.98,6.91,2.1c4.38,0.21,8.23-1.14,11.48-4.11
		c2.89-2.64,4.57-5.94,4.92-9.82c0.46-5.1-1.22-9.47-5.04-12.88c-4.36-3.89-9.47-5.02-15.06-3.32c-4.83,1.47-8.22,4.68-9.98,9.44
		c-1.78,4.84-1.17,9.47,1.64,13.79c0.37,0.56,0.46,1.02,0.22,1.66C9.1,33.57,8.65,35,8.15,36.5z"/>
	<path class="st0" d="M27.74,31.38c-1.15,0-2.23-0.32-3.32-0.65c-4.34-1.31-7.42-4.22-9.94-7.85c-0.89-1.27-1.65-2.6-1.89-4.15
		c-0.23-1.54,0.02-3,0.88-4.33c0.58-0.88,1.44-1.24,2.42-1.41c0.28-0.05,0.57-0.09,0.85-0.12c0.68-0.07,1.14,0.14,1.43,0.77
		c0.59,1.32,1.15,2.65,1.7,3.98c0.26,0.62-0.06,1.15-0.4,1.63c-0.28,0.4-0.64,0.76-0.93,1.15c-0.07,0.09-0.1,0.31-0.04,0.39
		c1.48,2.11,3.27,3.88,5.61,5.02c0.75,0.37,0.76,0.36,1.29-0.27c0.35-0.42,0.69-0.85,1.03-1.28c0.47-0.58,0.87-0.71,1.58-0.44
		c0.54,0.21,1.07,0.47,1.6,0.72c0.79,0.37,1.57,0.77,2.35,1.15c0.43,0.21,0.61,0.55,0.63,1.03c0.14,2.96-2.29,4.45-4.35,4.63
		C28.07,31.37,27.9,31.37,27.74,31.38z"/>
</g>
</svg>
